<svg width="100%" height="100%" viewBox="0 0 260 260" xmlns="http://www.w3.org/2000/svg">
	<g opacity="0.3" transform="translate(13, 13) scale(0.46)">
		<path fill="#20c997" d="M 233.397064 12.912415 C 246.928833 5.120605 263.585114 5.120605 277.116882 12.912415 L 455.005676 115.637085 C 468.527679 123.452911 476.860413 137.881775 476.871826 153.500092 L 476.871826 358.936981 C 476.871826 374.546722 468.529968 388.982635 455.005676 396.799988 L 277.116882 499.512207 C 263.585114 507.304016 246.928833 507.304016 233.397064 499.512207 C 174.100922 465.267395 114.800491 431.030029 55.495808 396.799988 C 41.982368 388.977234 33.656075 374.551331 33.642147 358.936981 L 33.642147 153.500092 C 33.642147 137.902832 41.984001 123.441956 55.495808 115.637085 L 233.397064 12.912415 Z"/>
		<path fill="#f6c000" d="M 31.219513 384.199829 L 149.066925 256.212311 L 255.575409 512.124878 L 31.219513 384.199829 Z"/>
		<path fill="#20c997" d="M 149.066925 256.212311 L 32.767998 127.350647 L 31.219513 384.199829 L 149.066925 256.212311 Z"/>
		<path fill="#7239ea" d="M 149.066925 256.212311 L 255.575409 0.287201 L 32.767998 127.350647 L 149.066925 256.224792 L 149.066925 256.212311 Z"/>
		<path fill="#464852" d="M 255.575409 0.287201 L 477.196472 384.174835 L 149.066925 256.212311"/>
		<path fill="#107eff" d="M 255.575409 512.561951 L 477.196472 384.199829 L 149.066925 256.212311 L 255.575409 512.561951 Z"/>
		<path fill="#ff3767" d="M 477.196472 384.174835 L 477.196472 128.249756 L 255.575409 0.287201 L 477.196472 384.174835 Z"/>
		<path fill="#1a67fd" d="M 223.219513 155.410706 L 330.552185 262.743439 L 223.219513 370.088593 L 195.084488 341.953552 L 274.282166 262.743439 L 195.084488 183.545746 L 223.219513 155.410706 Z"/>
		<path fill="#d6ffff" d="M 330.552185 250.130737 L 302.417175 221.983215 L 195.084488 329.328369 L 223.219513 357.463409 L 330.552185 250.118225 L 330.552185 250.130737 Z"/>
		<path fill="#d6ffff" d="M 223.219513 142.785583 L 195.084488 170.920593 L 302.417175 278.253265 L 330.552185 250.118225 L 223.219513 142.785583 Z"/>
	</g>
</svg>
