<?xml version="1.0" encoding="UTF-8"?>
<!-- Generated by Pixelmator Pro 3.8 -->
<svg width="512" height="512" viewBox="0 0 512 512" xmlns="http://www.w3.org/2000/svg">
    <path id="Path" fill="#20c997" stroke="none" d="M 233.397064 12.912415 C 246.928833 5.120605 263.585114 5.120605 277.116882 12.912415 L 455.005676 115.637085 C 468.527679 123.452911 476.860413 137.881775 476.871826 153.500092 L 476.871826 358.936981 C 476.871826 374.546722 468.529968 388.982635 455.005676 396.799988 L 277.116882 499.512207 C 263.585114 507.304016 246.928833 507.304016 233.397064 499.512207 C 174.100922 465.267395 114.800491 431.030029 55.495808 396.799988 C 41.982368 388.977234 33.656075 374.551331 33.642147 358.936981 L 33.642147 153.500092 C 33.642147 137.902832 41.984001 123.441956 55.495808 115.637085 L 233.397064 12.912415 Z"/>
    <path id="path1" fill="#f6c000" stroke="none" d="M 31.219513 384.199829 L 149.066925 256.212311 L 255.575409 512.124878 L 31.219513 384.199829 Z"/>
    <path id="path2" fill="#20c997" stroke="none" d="M 149.066925 256.212311 L 32.767998 127.350647 L 31.219513 384.199829 L 149.066925 256.212311 Z"/>
    <path id="path3" fill="#7239ea" stroke="none" d="M 149.066925 256.212311 L 255.575409 0.287201 L 32.767998 127.350647 L 149.066925 256.224792 L 149.066925 256.212311 Z"/>
    <path id="path4" fill="#464852" stroke="none" d="M 255.575409 0.287201 L 477.196472 384.174835 L 149.066925 256.212311"/>
    <path id="path5" fill="#107eff" stroke="none" d="M 255.575409 512.561951 L 477.196472 384.199829 L 149.066925 256.212311 L 255.575409 512.561951 Z"/>
    <path id="path6" fill="#ff3767" stroke="none" d="M 477.196472 384.174835 L 477.196472 128.249756 L 255.575409 0.287201 L 477.196472 384.174835 Z"/>
    <path id="path7" fill="#1a67fd" stroke="none" d="M 223.219513 155.410706 L 330.552185 262.743439 L 223.219513 370.088593 L 195.084488 341.953552 L 274.282166 262.743439 L 195.084488 183.545746 L 223.219513 155.410706 Z"/>
    <path id="path8" fill="#d6ffff" stroke="none" d="M 330.552185 250.130737 L 302.417175 221.983215 L 195.084488 329.328369 L 223.219513 357.463409 L 330.552185 250.118225 L 330.552185 250.130737 Z"/>
    <path id="path9" fill="#d6ffff" stroke="none" d="M 223.219513 142.785583 L 195.084488 170.920593 L 302.417175 278.253265 L 330.552185 250.118225 L 223.219513 142.785583 Z"/>
</svg>
